<svg id="visual" viewBox="0 0 960 540" width="960" height="540" xmlns="http://www.w3.org/2000/svg" xmlns:xlink="http://www.w3.org/1999/xlink" version="1.1"><path d="M0 44L14.5 48.5C29 53 58 62 87.2 63.8C116.3 65.7 145.7 60.3 174.8 65.8C204 71.3 233 87.7 262 95.8C291 104 320 104 349 95.8C378 87.7 407 71.3 436.2 68.5C465.3 65.7 494.7 76.3 523.8 72.7C553 69 582 51 611 48.3C640 45.7 669 58.3 698 64.7C727 71 756 71 785.2 75.5C814.3 80 843.7 89 872.8 91.7C902 94.3 931 90.7 945.5 88.8L960 87L960 0L945.5 0C931 0 902 0 872.8 0C843.7 0 814.3 0 785.2 0C756 0 727 0 698 0C669 0 640 0 611 0C582 0 553 0 523.8 0C494.7 0 465.3 0 436.2 0C407 0 378 0 349 0C320 0 291 0 262 0C233 0 204 0 174.8 0C145.7 0 116.3 0 87.2 0C58 0 29 0 14.5 0L0 0Z" fill="#260f39"></path><path d="M0 82L14.5 90.2C29 98.3 58 114.7 87.2 119.2C116.3 123.7 145.7 116.3 174.8 124.3C204 132.3 233 155.7 262 163.8C291 172 320 165 349 151.5C378 138 407 118 436.2 112.5C465.3 107 494.7 116 523.8 114.2C553 112.3 582 99.7 611 101.5C640 103.3 669 119.7 698 129.7C727 139.7 756 143.3 785.2 147C814.3 150.7 843.7 154.3 872.8 148.8C902 143.3 931 128.7 945.5 121.3L960 114L960 85L945.5 86.8C931 88.7 902 92.3 872.8 89.7C843.7 87 814.3 78 785.2 73.5C756 69 727 69 698 62.7C669 56.3 640 43.7 611 46.3C582 49 553 67 523.8 70.7C494.7 74.3 465.3 63.7 436.2 66.5C407 69.3 378 85.7 349 93.8C320 102 291 102 262 93.8C233 85.7 204 69.3 174.8 63.8C145.7 58.3 116.3 63.7 87.2 61.8C58 60 29 51 14.5 46.5L0 42Z" fill="#2b0f41"></path><path d="M0 233L14.5 230.3C29 227.7 58 222.3 87.2 223.3C116.3 224.3 145.7 231.7 174.8 254.2C204 276.7 233 314.3 262 311.5C291 308.7 320 265.3 349 248.2C378 231 407 240 436.2 251.8C465.3 263.7 494.7 278.3 523.8 271.2C553 264 582 235 611 227.7C640 220.3 669 234.7 698 241C727 247.3 756 245.7 785.2 250.2C814.3 254.7 843.7 265.3 872.8 271.7C902 278 931 280 945.5 281L960 282L960 112L945.5 119.3C931 126.7 902 141.3 872.8 146.8C843.7 152.3 814.3 148.7 785.2 145C756 141.3 727 137.7 698 127.7C669 117.7 640 101.3 611 99.5C582 97.7 553 110.3 523.8 112.2C494.7 114 465.3 105 436.2 110.5C407 116 378 136 349 149.5C320 163 291 170 262 161.8C233 153.7 204 130.3 174.8 122.3C145.7 114.3 116.3 121.7 87.2 117.2C58 112.7 29 96.3 14.5 88.2L0 80Z" fill="#300f48"></path><path d="M0 368L14.5 374.3C29 380.7 58 393.3 87.2 391.5C116.3 389.7 145.7 373.3 174.8 384.2C204 395 233 433 262 440.3C291 447.7 320 424.3 349 409C378 393.7 407 386.3 436.2 383.5C465.3 380.7 494.7 382.3 523.8 382.3C553 382.3 582 380.7 611 379C640 377.3 669 375.7 698 373C727 370.3 756 366.7 785.2 365.7C814.3 364.7 843.7 366.3 872.8 373.5C902 380.7 931 393.3 945.5 399.7L960 406L960 280L945.5 279C931 278 902 276 872.8 269.7C843.7 263.3 814.3 252.7 785.2 248.2C756 243.7 727 245.3 698 239C669 232.7 640 218.3 611 225.7C582 233 553 262 523.8 269.2C494.7 276.3 465.3 261.7 436.2 249.8C407 238 378 229 349 246.2C320 263.3 291 306.7 262 309.5C233 312.3 204 274.7 174.8 252.2C145.7 229.7 116.3 222.3 87.2 221.3C58 220.3 29 225.7 14.5 228.3L0 231Z" fill="#3a1455"></path><path d="M0 492L14.5 486.7C29 481.3 58 470.7 87.2 467.2C116.3 463.7 145.7 467.3 174.8 476.3C204 485.3 233 499.7 262 506C291 512.3 320 510.7 349 506.2C378 501.7 407 494.3 436.2 491.5C465.3 488.7 494.7 490.3 523.8 492.2C553 494 582 496 611 497.8C640 499.7 669 501.3 698 497.7C727 494 756 485 785.2 480.5C814.3 476 843.7 476 872.8 476C902 476 931 476 945.5 476L960 476L960 404L945.5 397.7C931 391.3 902 378.7 872.8 371.5C843.7 364.3 814.3 362.7 785.2 363.7C756 364.7 727 368.3 698 371C669 373.7 640 375.3 611 377C582 378.7 553 380.3 523.8 380.3C494.7 380.3 465.3 378.7 436.2 381.5C407 384.3 378 391.7 349 407C320 422.3 291 445.7 262 438.3C233 431 204 393 174.8 382.2C145.7 371.3 116.3 387.7 87.2 389.5C58 391.3 29 378.7 14.5 372.3L0 366Z" fill="#491e67"></path><path d="M0 541L14.5 541C29 541 58 541 87.2 541C116.3 541 145.7 541 174.8 541C204 541 233 541 262 541C291 541 320 541 349 541C378 541 407 541 436.2 541C465.3 541 494.7 541 523.8 541C553 541 582 541 611 541C640 541 669 541 698 541C727 541 756 541 785.2 541C814.3 541 843.7 541 872.8 541C902 541 931 541 945.5 541L960 541L960 474L945.5 474C931 474 902 474 872.8 474C843.7 474 814.3 474 785.2 478.5C756 483 727 492 698 495.7C669 499.3 640 497.7 611 495.8C582 494 553 492 523.8 490.2C494.7 488.3 465.3 486.7 436.2 489.5C407 492.3 378 499.7 349 504.2C320 508.7 291 510.3 262 504C233 497.7 204 483.3 174.8 474.3C145.7 465.3 116.3 461.7 87.2 465.2C58 468.7 29 479.3 14.5 484.7L0 490Z" fill="#59297a"></path></svg>